<svg width="516" height="398" viewBox="0 0 516 398" fill="none" xmlns="http://www.w3.org/2000/svg">
<rect y="0.985168" width="332.404" height="317.218" fill="black"/>
<path d="M287.436 219.325C287.436 231.521 285.234 242.061 280.83 250.945C276.426 259.828 270.384 266.679 262.705 271.497C255.026 276.315 246.256 278.725 236.394 278.725C226.531 278.725 217.761 276.315 210.082 271.497C202.403 266.679 196.361 259.828 191.957 250.945C187.553 242.061 185.351 231.521 185.351 219.325C185.351 207.129 187.553 196.59 191.957 187.706C196.361 178.823 202.403 171.972 210.082 167.153C217.761 162.335 226.531 159.926 236.394 159.926C246.256 159.926 255.026 162.335 262.705 167.153C270.384 171.972 276.426 178.823 280.83 187.706C285.234 196.59 287.436 207.129 287.436 219.325ZM273.885 219.325C273.885 209.313 272.21 200.862 268.86 193.973C265.547 187.085 261.049 181.872 255.365 178.333C249.719 174.795 243.395 173.026 236.394 173.026C229.392 173.026 223.049 174.795 217.366 178.333C211.719 181.872 207.221 187.085 203.871 193.973C200.558 200.862 198.902 209.313 198.902 219.325C198.902 229.338 200.558 237.789 203.871 244.677C207.221 251.566 211.719 256.779 217.366 260.318C223.049 263.856 229.392 265.625 236.394 265.625C243.395 265.625 249.719 263.856 255.365 260.318C261.049 256.779 265.547 251.566 268.86 244.677C272.21 237.789 273.885 229.338 273.885 219.325Z" fill="white"/>
<path d="M53.6208 38.3636H70.3339L109.632 134.351H110.987L150.286 38.3636H166.999V154H153.899V66.1435H152.77L116.634 154H103.986L67.8495 66.1435H66.7203V154H53.6208V38.3636Z" fill="white"/>
<rect width="320.051" height="8.78189" rx="4.39095" transform="matrix(0.700241 -0.713906 0.700241 0.713906 60.7339 267.255)" fill="#D9D9D9"/>
</svg>
